# AST/ASF file generated using VICON BodyLanguage
# -----------------------------------------------
:version 1.10
:name VICON
:units
  mass 1.0
  length 0.45
  angle deg
:documentation
   .ast/.asf automatically generated from VICON data using
   VICON BodyBuilder and BodyLanguage model FoxedUp or BRILLIANT.MOD
:root
   order TX TY TZ RX RY RZ
   axis XYZ
   position 0 0 0  
   orientation 0 0 0 
:bonedata
  begin
     id 1 
     name lhipjoint
     direction 0.722297 -0.617336 0.311742 
     length 2.6635 
     axis 0 0 0  XYZ
  end
  begin
     id 2 
     name lfemur
     direction 0.34202 -0.939693 0  
     length 7.39349  
     axis 0 0 20  XYZ
    dof rx ry rz
    limits (-160.0 20.0)
           (-70.0 70.0)
           (-60.0 70.0)
  end
  begin
     id 3 
     name ltibia
     direction 0.34202 -0.939693 0   
     length 7.36294   
     axis 0 0 20   XYZ
    dof rx
    limits (-10.0 170.0)
  end
  begin
     id 4 
     name lfoot
     direction 0.104879 -0.288152 0.951824   
     length 2.16981   
     axis -90 7.62852e-016 20   XYZ
    dof rx rz
    limits (-45.0 90.0)
           (-70.0 20.0)
  end
  begin
     id 5 
     name ltoes
     direction 1.53586e-011 -4.21895e-011 1   
     length 1.08218   
     axis -90 7.62852e-016 20   XYZ
    dof rx
    limits (-90.0 20.0)
  end
  begin
     id 6 
     name rhipjoint
     direction -0.75102 -0.589393 0.297631   
     length 2.78977  
     axis 0 0 0  XYZ 
  end
  begin
     id 7 
     name rfemur
     direction -0.34202 -0.939693 0   
     length 7.46076   
     axis 0 0 -20   XYZ
    dof rx ry rz
    limits (-160.0 20.0)
           (-70.0 70.0)
           (-70.0 60.0)
  end
  begin
     id 8 
     name rtibia
     direction -0.34202 -0.939693 0   
     length 7.31726   
     axis 0 0 -20   XYZ
    dof rx
    limits (-10.0 170.0)
 end
 begin
     id 9 
     name rfoot
     direction -0.107991 -0.296704 0.948844   
     length 2.09388  
     axis -90 -7.62852e-016 -20   XYZ
    dof rx rz
    limits (-45.0 90.0)
           (-20.0 70.0)
  end
  begin
     id 10 
     name rtoes
     direction -1.53559e-011 -4.21911e-011 1   
     length 1.04433   
     axis -90 -7.62852e-016 -20   XYZ
    dof rx
    limits (-90.0 20.0)
  end
  begin
     id 11 
     name lowerback
     direction 0.0165164 0.98272 0.184358   
     length 1.71896   
     axis 0 0 0   XYZ
    dof rx ry rz
    limits (-20.0 45.0)
           (-30.0 30.0)
           (-30.0 30.0)
  end
  begin
     id 12 
     name upperback
     direction -0.00887249 0.992297 0.123566   
     length 1.71504   
     axis 0 0 0   XYZ
    dof rx ry rz
    limits (-20.0 45.0)
           (-30.0 30.0)
           (-30.0 30.0)
  end
  begin
     id 13 
     name thorax
     direction -0.0157026 0.998908 0.0440032   
     length 1.77022   
     axis 0 0 0   XYZ
    dof rx ry rz
    limits (-20.0 45.0)
           (-30.0 30.0)
           (-30.0 30.0)
  end
  begin
     id 14 
     name lowerneck
     direction -0.0238856 0.998137 0.0561411   
     length 1.89341   
     axis 0 0 0   XYZ
    dof rx ry rz
    limits (-20.0 45.0)
           (-30.0 30.0)
           (-30.0 30.0)
  end
  begin
     id 15 
     name upperneck
     direction 0.0276574 0.952253 -0.304056   
     length 1.86999   
     axis 0 0 0   XYZ
    dof rx ry rz
    limits (-20.0 45.0)
           (-30.0 30.0)
           (-30.0 30.0)
  end
  begin
     id 16
     name head
     direction 0.00800083 0.994258 -0.106712  
     length 1.91492  
     axis 0 0 0   XYZ
    dof rx ry rz
    limits (-20.0 45.0)
           (-30.0 30.0)
           (-30.0 30.0)
  end
  begin
     id 17 
     name lclavicle
     direction 0.97203 0.225407 0.06595  
     length 3.34889  
     axis 0 0 0   XYZ
    dof ry rz
    limits (-20.0 10.0)
           (0.0 20.0)
  end
  begin
     id 18 
     name lhumerus
     direction 1 -4.48973e-011 2.20267e-027   
     length 4.85645   
     axis 180 -30 -90   XYZ
    dof rx ry rz
    limits (-60.0 90.0)
           (-90.0 90.0)
           (-90.0 90.0)
  end
  begin
     id 19
     name lradius
     direction 1 -4.4897e-011 4.60472e-027   
     length 2.79874   
     axis 180 -30 -90   XYZ
    dof rx
    limits (-10.0 170.0)
  end
  begin
     id 20
     name lwrist
     direction 1 -4.48952e-011 1.14928e-026   
     length 1.39937   
     axis -6.29373e-015 90 90   XYZ
    dof ry
    limits (-180.0 0.0)
 end
  begin
     id 21 
     name lhand
     direction 1 -4.48967e-011 2.29886e-026   
     length 0.573398   
     axis -1.46689e-014 90 90   XYZ
    dof rx rz
    limits (-90.0 90.0)
           (-45.0 45.0)
  end
  begin
     id 22 
     name lfingers
     direction 1 -4.48955e-011 4.59726e-026   
     length 0.462289   
     axis -2.93383e-014 90 90   XYZ
    dof rx
    limits (0.0 90.0)
  end
  begin
     id 23
     name lthumb
     direction 0.707107 -6.34866e-011 0.707107   
     length 0.663757   
     axis -90 45 5.69224e-014   XYZ
    dof rx rz
    limits (-45.0 45.0)
           (-45.0 45.0)
  end
  begin
     id 24 
     name rclavicle
     direction -0.981571 0.157346 0.108443   
     length 3.35257  
     axis 0 0 0   XYZ 
    dof ry rz
    limits (-10.0 20.0)
           (-20.0 0.0)
  end
  begin
     id 25 
     name rhumerus
     direction -1 -4.48967e-011 8.58308e-029  
     length 4.67018   
     axis 180 30 90   XYZ
    dof rx ry rz
    limits (-90.0 60.0)
           (-90.0 90.0)
           (-90.0 90.0)
  end
  begin
     id 26 
     name rradius
     direction -1 -4.48958e-011 4.52548e-027   
     length 2.65534   
     axis 180 30 90   XYZ
    dof rx
    limits (-10.0 170.0)
  end
  begin
     id 27 
     name rwrist
     direction -1 -4.48977e-011 1.14952e-026   
     length 1.32767   
     axis -6.29373e-015 -90 -90   XYZ
    dof ry
    limits (-180.0 0.0)
  end
  begin
     id 28
     name rhand
     direction -1 -4.48924e-011 2.29804e-026   
     length 0.594069   
     axis -1.46689e-014 -90 -90   XYZ
    dof rx rz
    limits (-90.0 90.0)
           (-45.0 45.0)
  end
  begin
     id 29
     name rfingers
     direction -1 -4.48998e-011 4.59888e-026   
     length 0.478954   
     axis -2.93383e-014 -90 -90   XYZ
    dof rx
    limits (0.0 90.0)
  end
  begin
     id 30
     name rthumb
     direction -0.707107 -6.34933e-011 0.707107   
     length 0.687685   
     axis -90 -45 -5.69224e-014   XYZ
    dof rx rz
    limits (-45.0 45.0)
           (-45.0 45.0)
  end
:hierarchy
  begin
    root lhipjoint rhipjoint lowerback
    lhipjoint lfemur
    lfemur ltibia
    ltibia lfoot
    lfoot ltoes
    rhipjoint rfemur
    rfemur rtibia
    rtibia rfoot
    rfoot rtoes
    lowerback upperback
    upperback thorax
    thorax lowerneck lclavicle rclavicle
    lowerneck upperneck
    upperneck head
    lclavicle lhumerus
    lhumerus lradius
    lradius lwrist
    lwrist lhand lthumb
    lhand lfingers
    rclavicle rhumerus
    rhumerus rradius
    rradius rwrist
    rwrist rhand rthumb
    rhand rfingers
  end

#!OML:ASF E:\pregnant2\Project 1\Capture day 1\Session 1\pregnant2.ASF
:FULLY-SPECIFIED
:DEGREES
779
root -5.1362 16.9148 41.2143 -329.463 -36.0415 355.969
lowerback -19.7776 0.16852 1.34848
upperback -14.4704 -0.455155 1.21179
thorax -4.66354 -0.487425 0.484778
lowerneck -7.81336 -9.1862 -12.7436
upperneck 39.9108 -16.2107 8.88131
head 18.1291 -7.97788 3.25693
rclavicle 3.93718e-014 1.98288e-014
rhumerus -45.9124 11.6131 -89.1944
rradius 46.1444
rwrist 1.37742
rhand -16.0014 -14.0501
rfingers 7.12502
rthumb 190.199 136.217
lclavicle 3.93718e-014 1.98288e-014
lhumerus -54.9973 5.97534 77.7333
lradius 30.8099
lwrist -1.87269
lhand -8.90818 30.4243
lfingers 7.12502
lthumb 197.035 -120.303
rfemur -33.2554 16.2616 23.6101
rtibia 24.5414
rfoot -15.1814 -10.0796
rtoes 7.7449
lfemur -57.5127 -19.6454 9.0988
ltibia 23.9326
lfoot -7.50486 24.6155
ltoes -15.5521
780
root -5.16449 16.9164 41.3116 -329.415 -36.5947 355.868
lowerback -19.8239 0.198082 1.40223
upperback -14.4569 -0.43319 1.19641
thorax -4.62543 -0.484212 0.441187
lowerneck -7.88593 -9.05816 -12.5762
upperneck 39.9642 -16.0237 8.81059
head 18.112 -7.88681 3.2333
rclavicle -6.69656e-015 -5.71506e-015
rhumerus -46.0523 11.5624 -89.2816
rradius 45.6166
rwrist 1.50157
rhand -16 -14.003
rfingers 7.12502
rthumb 190.2 136.264
lclavicle -6.69656e-015 -5.71506e-015
lhumerus -54.8884 5.96503 77.7531
lradius 30.8712
lwrist -1.81986
lhand -8.98814 30.4598
lfingers 7.12502
lthumb 196.958 -120.26
rfemur -32.7389 16.4549 23.4828
rtibia 24.2205
rfoot -15.2388 -9.84727
rtoes 7.48645
lfemur -57.6874 -20.6645 10.5884
ltibia 23.0202
lfoot -7.67507 25.0317
ltoes -16.2193
781
root -5.19249 16.9152 41.4104 -329.369 -37.1524 355.773
lowerback -19.8696 0.226568 1.45366
upperback -14.4461 -0.412483 1.18297
thorax -4.59074 -0.481449 0.400863
lowerneck -7.95972 -8.92773 -12.4044
upperneck 40.0212 -15.8328 8.73443
head 18.096 -7.7941 3.207
rclavicle -2.51214e-014 -4.02539e-015
rhumerus -46.1793 11.4724 -89.3306
rradius 44.9953
rwrist 1.68832
rhand -16.0005 -13.7533
rfingers 7.12502
rthumb 190.2 136.514
lclavicle -2.51214e-014 -4.02539e-015
lhumerus -54.7792 5.94894 77.7862
lradius 30.9187
lwrist -1.79458
lhand -9.09198 30.465
lfingers 7.12502
lthumb 196.858 -120.247
rfemur -32.266 16.6548 23.3386
rtibia 23.9948
rfoot -15.3459 -9.6321
rtoes 7.2129
lfemur -57.8076 -21.479 11.7635
ltibia 22.2987
lfoot -7.89054 25.2847
ltoes -16.916
782
root -5.22017 16.9112 41.5106 -329.328 -37.717 355.688
lowerback -19.908 0.255833 1.49824
upperback -14.4436 -0.389895 1.16912
thorax -4.569 -0.477454 0.364445
lowerneck -8.03016 -8.79733 -12.2344
upperneck 40.0843 -15.6436 8.65708
head 18.084 -7.70273 3.18008
rclavicle 6.01075e-014 1.11319e-014
rhumerus -46.3006 11.3336 -89.3378
rradius 44.2864
rwrist 1.93872
rhand -15.9995 -13.3314
rfingers 7.12502
rthumb 190.201 136.936
lclavicle 6.01075e-014 1.11319e-014
lhumerus -54.6709 5.92453 77.8285
lradius 30.9509
lwrist -1.77799
lhand -9.1789 30.4556
lfingers 7.12502
lthumb 196.774 -120.249
rfemur -31.8444 16.8633 23.1724
rtibia 23.8719
rfoot -15.5067 -9.43875
rtoes 6.91252
lfemur -57.8445 -22.0637 12.5685
ltibia 21.7639
lfoot -8.13084 25.3245
ltoes -17.6291
783
root -5.24756 16.9046 41.6119 -329.289 -38.2866 355.606
lowerback -19.9398 0.292043 1.54266
upperback -14.4447 -0.358115 1.15087
thorax -4.55462 -0.469055 0.324947
lowerneck -8.09665 -8.66976 -12.0704
upperneck 40.1468 -15.4623 8.58878
head 18.0749 -7.6146 3.15666
rclavicle 7.20719e-014 -1.51076e-014
rhumerus -46.4287 11.1362 -89.2955
rradius 43.5172
rwrist 2.23897
rhand -15.9948 -12.7635
rfingers 7.12502
rthumb 190.205 137.504
lclavicle 7.20719e-014 -1.51076e-014
lhumerus -54.5529 5.88693 77.879
lradius 30.9668
lwrist -1.77555
lhand -9.24399 30.4417
lfingers 7.12502
lthumb 196.712 -120.258
rfemur -31.4742 17.081 22.9908
rtibia 23.8567
rfoot -15.7203 -9.27022
rtoes 6.57255
lfemur -57.7683 -22.4009 12.9712
ltibia 21.4067
lfoot -8.36019 25.0775
ltoes -18.3885
784
root -5.27468 16.8954 41.7145 -329.27 -38.8656 355.548
lowerback -19.9579 0.336192 1.57342
upperback -14.4481 -0.313525 1.11788
thorax -4.54948 -0.453802 0.279471
lowerneck -8.15952 -8.55066 -11.9016
upperneck 40.2048 -15.299 8.52763
head 18.0665 -7.53222 3.13189
rclavicle -6.62823e-014 -3.63776e-014
rhumerus -46.5512 10.8481 -89.1921
rradius 42.6765
rwrist 2.58652
rhand -15.9955 -12.0858
rfingers 7.12502
rthumb 190.204 138.182
lclavicle -6.62823e-014 -3.63776e-014
lhumerus -54.4196 5.82361 77.9379
lradius 30.9661
lwrist -1.77988
lhand -9.29095 30.4282
lfingers 7.12502
lthumb 196.666 -120.267
rfemur -31.1494 17.305 22.778
rtibia 23.9479
rfoot -15.989 -9.12732
rtoes 6.21313
lfemur -57.5728 -22.5162 12.9772
ltibia 21.2157
lfoot -8.5626 24.5057
ltoes -19.1673
785
root -5.30142 16.8837 41.8184 -329.27 -39.455 355.511
lowerback -19.9616 0.376605 1.58497
upperback -14.4538 -0.270581 1.0871
thorax -4.554 -0.437865 0.247031
lowerneck -8.22458 -8.43213 -11.7445
upperneck 40.2611 -15.1346 8.46906
head 18.06 -7.45065 3.11011
rclavicle -3.23025e-014 -4.40308e-014
rhumerus -46.6512 10.4794 -89.0122
rradius 41.7581
rwrist 3.00732
rhand -15.9727 -11.3836
rfingers 7.12502
rthumb 190.226 138.885
lclavicle -3.23025e-014 -4.40308e-014
lhumerus -54.2819 5.78188 77.9954
lradius 30.9447
lwrist -1.79178
lhand -9.32917 30.4029
lfingers 7.12502
lthumb 196.63 -120.289
rfemur -30.868 17.5326 22.5367
rtibia 24.1353
rfoot -16.3011 -9.00107
rtoes 5.85133
lfemur -57.2709 -22.4457 12.6461
ltibia 21.1767
lfoot -8.69284 23.6114
ltoes -19.9909
786
root -5.32772 16.87 41.9236 -329.283 -40.0595 355.493
lowerback -19.9641 0.415327 1.578
upperback -14.4589 -0.227085 1.06067
thorax -4.55822 -0.420033 0.229728
lowerneck -8.29698 -8.31415 -11.5887
upperneck 40.3123 -14.9635 8.39891
head 18.0503 -7.36727 3.08389
rclavicle -3.43152e-014 9.54166e-015
rhumerus -46.7477 10.0595 -88.7611
rradius 40.8134
rwrist 3.4767
rhand -15.9115 -10.7514
rfingers 7.12502
rthumb 190.286 139.52
lclavicle -3.43152e-014 9.54166e-015
lhumerus -54.1352 5.7568 78.0634
lradius 30.9069
lwrist -1.81493
lhand -9.36835 30.3799
lfingers 7.12502
lthumb 196.592 -120.309
rfemur -30.6271 17.7664 22.2648
rtibia 24.401
rfoot -16.6455 -8.88728
rtoes 5.49356
lfemur -56.8887 -22.2424 12.0656
ltibia 21.2694
lfoot -8.71023 22.4262
ltoes -20.8863
787
root -5.35353 16.8555 42.0298 -329.311 -40.686 355.508
lowerback -19.9646 0.451786 1.54329
upperback -14.4694 -0.182714 1.03545
thorax -4.56936 -0.399808 0.229527
lowerneck -8.37179 -8.19766 -11.4275
upperneck 40.3577 -14.7869 8.31091
head 18.0343 -7.28253 3.04914
rclavicle 2.03009e-014 3.46879e-014
rhumerus -46.8319 9.57133 -88.4386
rradius 39.8418
rwrist 4.01047
rhand -15.8129 -10.2662
rfingers 7.12502
rthumb 190.381 140.01
lclavicle 2.03009e-014 3.46879e-014
lhumerus -53.9858 5.74053 78.1467
lradius 30.8508
lwrist -1.83668
lhand -9.41314 30.3619
lfingers 7.12502
lthumb 196.549 -120.324
rfemur -30.4254 18.0071 21.9477
rtibia 24.7198
rfoot -17.0059 -8.78149
rtoes 5.13629
lfemur -56.4752 -21.9808 11.3449
ltibia 21.4686
lfoot -8.57038 21.0354
ltoes -21.8105
788
root -5.37863 16.8418 42.1369 -329.349 -41.3298 355.551
lowerback -19.978 0.494897 1.4958
upperback -14.4771 -0.128213 1.00095
thorax -4.57084 -0.373889 0.228062
lowerneck -8.44349 -8.09173 -11.2652
upperneck 40.3825 -14.6238 8.22316
head 18.0081 -7.20277 3.01108
rclavicle -5.72748e-014 -3.34952e-014
rhumerus -46.9093 9.0232 -88.0614
rradius 38.8805
rwrist 4.5747
rhand -15.6857 -9.95633
rfingers 7.12502
rthumb 190.503 140.326
lclavicle -5.72748e-014 -3.34952e-014
lhumerus -53.806 5.69356 78.263
lradius 30.7689
lwrist -1.83632
lhand -9.46975 30.3578
lfingers 7.12502
lthumb 196.494 -120.323
rfemur -30.2591 18.2488 21.5912
rtibia 25.074
rfoot -17.3681 -8.67837
rtoes 4.77617
lfemur -56.073 -21.7279 10.5926
ltibia 21.7396
lfoot -8.275 19.5553
ltoes -22.7368
789
root -5.40343 16.8307 42.2446 -329.398 -42.0014 355.647
lowerback -20.0118 0.52933 1.40034
upperback -14.4958 -0.0793686 0.968036
thorax -4.57453 -0.347627 0.254487
lowerneck -8.49954 -7.98583 -11.1071
upperneck 40.3914 -14.4561 8.129
head 17.9678 -7.12305 2.97202
rclavicle -2.12451e-014 1.18277e-014
rhumerus -47.0313 8.47959 -87.6389
rradius 37.9622
rwrist 5.15464
rhand -15.5371 -9.7176
rfingers 7.12502
rthumb 190.647 140.572
lclavicle -2.12451e-014 1.18277e-014
lhumerus -53.6285 5.67187 78.3856
lradius 30.6689
lwrist -1.85259
lhand -9.5279 30.3679
lfingers 7.12502
lthumb 196.438 -120.309
rfemur -30.1412 18.4887 21.1683
rtibia 25.4519
rfoot -17.7203 -8.57666
rtoes 4.40189
lfemur -55.7263 -21.5423 9.87883
ltibia 22.0469
lfoot -7.84332 18.1388
ltoes -23.6332
790
root -5.42779 16.8226 42.3523 -329.477 -42.7028 355.837
lowerback -20.0584 0.522469 1.19301
upperback -14.5317 -0.0692541 0.962179
thorax -4.59139 -0.331842 0.366969
lowerneck -8.54755 -7.87129 -10.9719
upperneck 40.393 -14.2624 8.01943
head 17.9183 -7.03838 2.93498
rclavicle 1.67228e-014 -2.70844e-014
rhumerus -47.1997 8.02092 -87.185
rradius 37.0953
rwrist 5.70287
rhand -15.4193 -9.49857
rfingers 7.12502
rthumb 190.76 140.797
lclavicle 1.67228e-014 -2.70844e-014
lhumerus -53.4645 5.72531 78.5192
lradius 30.544
lwrist -1.87391
lhand -9.5993 30.3767
lfingers 7.12502
lthumb 196.369 -120.294
rfemur -30.0885 18.719 20.6466
rtibia 25.858
rfoot -18.0582 -8.48481
rtoes 4.01983
lfemur -55.4597 -21.4453 9.2061
ltibia 22.3602
lfoot -7.30585 16.9149
ltoes -24.4088
791
root -5.45207 16.8177 42.4595 -329.598 -43.4155 356.132
lowerback -20.13 0.500027 0.909431
upperback -14.5707 -0.0690918 0.934363
thorax -4.5998 -0.316467 0.497322
lowerneck -8.58844 -7.76705 -10.857
upperneck 40.3752 -14.0937 7.94581
head 17.8673 -6.96284 2.91286
rclavicle 2.90226e-014 -1.14301e-015
rhumerus -47.4078 7.56496 -86.7192
rradius 36.2974
rwrist 6.20202
rhand -15.3436 -9.34626
rfingers 7.12502
rthumb 190.833 140.953
lclavicle 2.90226e-014 -1.14301e-015
lhumerus -53.264 5.74308 78.6777
lradius 30.3872
lwrist -1.85534
lhand -9.67813 30.3936
lfingers 7.12502
lthumb 196.294 -120.271
rfemur -30.1006 18.9259 20.0319
rtibia 26.3085
rfoot -18.3938 -8.4154
rtoes 3.62972
lfemur -55.2601 -21.4125 8.5363
ltibia 22.6578
lfoot -6.67468 15.9521
ltoes -25.0067
792
root -5.47663 16.8145 42.566 -329.796 -44.1149 356.547
lowerback -20.1947 0.449647 0.541387
upperback -14.6159 -0.092599 0.886047
thorax -4.61892 -0.307577 0.649695
lowerneck -8.62104 -7.67331 -10.76
upperneck 40.3455 -13.9511 7.90446
head 17.8182 -6.89719 2.90348
rclavicle -7.17551e-014 -7.85199e-015
rhumerus -47.6701 7.12004 -86.2486
rradius 35.5694
rwrist 6.62619
rhand -15.3333 -9.21083
rfingers 7.12502
rthumb 190.843 141.089
lclavicle -7.17551e-014 -7.85199e-015
lhumerus -53.0438 5.74861 78.8376
lradius 30.204
lwrist -1.85671
lhand -9.76552 30.4195
lfingers 7.12502
lthumb 196.209 -120.238
rfemur -30.1572 19.0987 19.3366
rtibia 26.8233
rfoot -18.7418 -8.39107
rtoes 3.23799
lfemur -55.0851 -21.3849 7.77619
ltibia 22.9378
lfoot -5.98938 15.2388
ltoes -25.416
793
root -5.50192 16.8112 42.6717 -330.089 -44.7685 357.072
lowerback -20.233 0.36408 0.100764
upperback -14.655 -0.149724 0.819904
thorax -4.64451 -0.310375 0.818583
lowerneck -8.65476 -7.59422 -10.6868
upperneck 40.3004 -13.843 7.90694
head 17.7745 -6.84376 2.91103
rclavicle -7.77062e-014 -2.63887e-014
rhumerus -47.933 6.59913 -85.7273
rradius 34.8441
rwrist 7.06514
rhand -15.3605 -9.06131
rfingers 7.12502
rthumb 190.817 141.237
lclavicle -7.77062e-014 -2.63887e-014
lhumerus -52.7915 5.76967 78.9699
lradius 29.98
lwrist -1.9137
lhand -9.87242 30.4336
lfingers 7.12502
lthumb 196.107 -120.216
rfemur -30.2235 19.2294 18.597
rtibia 27.4058
rfoot -19.1122 -8.4318
rtoes 2.84691
lfemur -54.8864 -21.2941 6.84638
ltibia 23.2086
lfoot -5.30961 14.7045
ltoes -25.6297
